<?xml version="1.0" encoding="UTF-8"?><!DOCTYPE svg PUBLIC "-//W3C//DTD SVG 1.1//EN" "http://www.w3.org/Graphics/SVG/1.1/DTD/svg11.dtd"><svg xmlns="http://www.w3.org/2000/svg" xmlns:xlink="http://www.w3.org/1999/xlink"><defs><style>.cls-1,.cls-4{fill:#394395;}.cls-1{opacity:0.25;}.cls-2,.cls-3,.cls-5{fill:#575756;}.cls-2{opacity:0.75;}.cls-3{opacity:0.5;}</style></defs><symbol id="icon-logo" viewBox="0 0 324.49 131.12"><g id="Layer_2" data-name="Layer 2"><g id="Layer_1-2" data-name="Layer 1"><polygon class="cls-1" points="54.13 0 0 93.76 87.25 57.35 54.13 0"/><polygon class="cls-2" points="82.92 18.38 15.76 28.68 28.85 72.45 120.41 88.82 82.92 18.38"/><polygon class="cls-3" points="50.9 34.93 23.4 89.35 127.44 82.57 50.9 34.93"/><polygon class="cls-4" points="324.49 35.96 98.1 35.96 44.96 8.09 14.56 82.82 98.15 37.44 324.49 37.44 324.49 35.96"/><path class="cls-5" d="M150,84.49c-9.26,0-13.76-5.13-14.07-13.22a.22.22,0,0,1,.21-.21h1.37a.22.22,0,0,1,.21.21C138.1,78.67,141.6,83,150.11,83c6.08,0,11.16-2.65,11.16-9.26,0-12.38-24.54-3.91-24.54-17.45,0-6.46,5.24-9.68,12.38-9.68,8.25,0,12.8,4,13.17,11.32a.23.23,0,0,1-.21.21h-1.38a.23.23,0,0,1-.21-.21c-.32-6.62-3.92-9.79-11.37-9.79-6.83,0-10.79,2.59-10.79,8.09,0,11.53,24.54,3.28,24.54,17.51C162.86,81,157.25,84.49,150,84.49Z"/><path class="cls-5" d="M181.32,84.07a.24.24,0,0,1-.22-.21l.11-17.93-.11-17.41H170.53a.23.23,0,0,1-.22-.21V47.25a.24.24,0,0,1,.22-.21h23a.23.23,0,0,1,.21.21v1.06a.23.23,0,0,1-.21.21H183l-.11,17.41L183,83.86a.24.24,0,0,1-.22.21Z"/><path class="cls-5" d="M215.85,84.6c-8.46,0-12.43-5.66-12.43-14.81V56.4l0-9.15a.23.23,0,0,1,.21-.21H205a.23.23,0,0,1,.21.21l-.05,9.15V69.79c0,7.56,2.91,13.33,10.68,13.33s10.69-5.77,10.69-13.33V56.4l0-9.15a.23.23,0,0,1,.21-.21h1.43a.23.23,0,0,1,.21.21l-.06,9.15V69.79C228.28,78.94,224.32,84.6,215.85,84.6Z"/><path class="cls-5" d="M239.76,84.07a.23.23,0,0,1-.21-.21l.1-19.42-.1-17.19a.23.23,0,0,1,.21-.21h10.63c10.63,0,17.83,7.3,17.83,18.2,0,12.11-8.31,18.83-17.72,18.83Zm1.75-1.48h9.41c7.09,0,15.45-5.19,15.45-17.3,0-11.05-7.25-16.77-15.66-16.77h-9.2l-.11,15.92Z"/><path class="cls-5" d="M279.48,84.07a.23.23,0,0,1-.21-.21l.11-19-.11-17.56a.23.23,0,0,1,.21-.21h1.43a.23.23,0,0,1,.21.21L281,64.81l.1,19a.23.23,0,0,1-.21.21Z"/><path class="cls-5" d="M307.78,84.6c-10,0-16.66-7.25-16.66-19.1s6.66-19,16.71-19,16.66,7.14,16.66,19S317.77,84.6,307.78,84.6Zm0-1.48c9,0,14.86-6.56,14.86-17.57S316.82,48,307.78,48,293,54.61,293,65.55,298.78,83.12,307.78,83.12Z"/><path class="cls-4" d="M136.25,130.44a.33.33,0,0,1-.31-.32l.1-18.67-.1-17.72a.33.33,0,0,1,.31-.32H148.1c10.63,0,18.73,6.4,18.73,18.51,0,12.65-8.73,18.52-18.62,18.52Zm4.71-4h7.67c6.51,0,13.12-4.28,13.12-14.55,0-9.78-6-14.54-13.33-14.54H141c0,.05-.11,10.63-.11,14S141,126.42,141,126.47Z"/><path class="cls-4" d="M175.29,130.44a.34.34,0,0,1-.32-.32l.16-18.78L175,93.73a.34.34,0,0,1,.32-.32h22.63a.34.34,0,0,1,.32.32v3.33a.34.34,0,0,1-.32.32h-18l-.1,11.32h16.82a.34.34,0,0,1,.31.31v3.34a.33.33,0,0,1-.31.31H179.84l.1,13.81h18.41a.34.34,0,0,1,.32.32v3.33a.34.34,0,0,1-.32.32Z"/><path class="cls-4" d="M220.14,131.07c-9.52,0-15.08-4.55-15.45-13.06a.34.34,0,0,1,.32-.32h4.5a.33.33,0,0,1,.31.32c.48,5.6,3.12,9.09,10.42,9.09,5.45,0,9.31-2,9.31-6.87,0-10.16-24.06-2.75-24.06-16.93,0-6.72,5.29-10.52,13.59-10.52,8.46,0,13.75,3.59,14.49,11.32a.34.34,0,0,1-.31.31h-4.5a.34.34,0,0,1-.32-.31c-.37-4.87-3.49-7.3-9.52-7.3-5.29,0-8.67,1.9-8.67,6,0,9.57,24.17,2.32,24.17,16.76C234.42,127.21,228.6,131.07,220.14,131.07Z"/><path class="cls-4" d="M242.09,130.44a.34.34,0,0,1-.32-.32l.11-18.51-.11-17.88a.34.34,0,0,1,.32-.32h4.28a.34.34,0,0,1,.32.32l-.11,17.88.11,18.51a.34.34,0,0,1-.32.32Z"/><path class="cls-4" d="M271.28,131.12c-10,0-17.08-7.56-17.08-19.2,0-11.79,7.14-19.2,16.87-19.2,8.36,0,13.91,4.34,15.66,12.17a.3.3,0,0,1-.27.32H282a.4.4,0,0,1-.37-.32c-1.22-5.34-5-8.09-10.53-8.09-7.14,0-11.84,5.66-11.84,15.18,0,9.31,4.76,15.07,12,15.07s11-4.55,11.16-12H271.12a.34.34,0,0,1-.31-.32V111.5a.34.34,0,0,1,.31-.32H287.2a.34.34,0,0,1,.32.32C287.73,124.2,282,131.12,271.28,131.12Z"/><path class="cls-4" d="M299.31,112.08l.06,18a.34.34,0,0,1-.32.32H295a.34.34,0,0,1-.32-.32l.11-18.46-.06-17.93a.34.34,0,0,1,.32-.32h5.08a.61.61,0,0,1,.47.27l19.47,30.67-.05-3.12-.11-9.09-.05-18.41a.34.34,0,0,1,.32-.32h4a.34.34,0,0,1,.32.32l-.1,17.93.1,18.46a.34.34,0,0,1-.32.32h-5.34a.61.61,0,0,1-.47-.27l-19.2-30,0,3.28Z"/></g></g></symbol></svg>